<?xml version="1.0" encoding="UTF-8"?>
<!DOCTYPE svg PUBLIC "-//W3C//DTD SVG 1.1//EN" "http://www.w3.org/Graphics/SVG/1.1/DTD/svg11.dtd">
<!-- Creator: CorelDRAW 2018 (64-Bit) -->
<svg xmlns="http://www.w3.org/2000/svg" xml:space="preserve" width="145mm" height="40mm" version="1.1" style="shape-rendering:geometricPrecision; text-rendering:geometricPrecision; image-rendering:optimizeQuality; fill-rule:evenodd; clip-rule:evenodd"
viewBox="0 0 14500 4000"
 xmlns:xlink="http://www.w3.org/1999/xlink">
 <defs>
  <style type="text/css">
   <![CDATA[
    .fil6 {fill:#525252}
    .fil0 {fill:#1E1E1E}
    .fil1 {fill:url(#id0)}
    .fil3 {fill:url(#id1)}
    .fil4 {fill:url(#id2)}
    .fil2 {fill:url(#id3)}
    .fil5 {fill:url(#id4)}
   ]]>
  </style>
  <linearGradient id="id0" gradientUnits="userSpaceOnUse" x1="410.95" y1="1642.71" x2="1481.35" y2="2345.85">
   <stop offset="0" style="stop-opacity:1; stop-color:#009083"/>
   <stop offset="0.341176" style="stop-opacity:1; stop-color:#00637E"/>
   <stop offset="1" style="stop-opacity:1; stop-color:#003579"/>
  </linearGradient>
  <linearGradient id="id1" gradientUnits="userSpaceOnUse" x1="757.68" y1="1018.68" x2="2667.4" y2="684.7">
   <stop offset="0" style="stop-opacity:1; stop-color:#006D73"/>
   <stop offset="0.254902" style="stop-opacity:1; stop-color:#358E47"/>
   <stop offset="0.439216" style="stop-opacity:1; stop-color:#187C5F"/>
   <stop offset="1" style="stop-opacity:1; stop-color:#6BAF1A"/>
  </linearGradient>
  <linearGradient id="id2" gradientUnits="userSpaceOnUse" x1="3781.37" y1="1228.62" x2="2354.05" y2="3535.39">
   <stop offset="0" style="stop-opacity:1; stop-color:#EED149"/>
   <stop offset="0.145098" style="stop-opacity:1; stop-color:#E97E3C"/>
   <stop offset="0.301961" style="stop-opacity:1; stop-color:#EED149"/>
   <stop offset="1" style="stop-opacity:1; stop-color:#E32B2F"/>
  </linearGradient>
  <linearGradient id="id3" gradientUnits="userSpaceOnUse" x1="758.87" y1="1086.87" x2="2924.92" y2="728.29">
   <stop offset="0" style="stop-opacity:1; stop-color:#016166"/>
   <stop offset="0.329412" style="stop-opacity:1; stop-color:#429E41"/>
   <stop offset="0.568627" style="stop-opacity:1; stop-color:#207E54"/>
   <stop offset="1" style="stop-opacity:1; stop-color:#84DB1B"/>
  </linearGradient>
  <linearGradient id="id4" gradientUnits="userSpaceOnUse" x1="1021.7" y1="3699.67" x2="2000.58" y2="2827">
   <stop offset="0" style="stop-opacity:1; stop-color:#904087"/>
   <stop offset="0.658824" style="stop-opacity:1; stop-color:#52236E"/>
   <stop offset="1" style="stop-opacity:1; stop-color:#130554"/>
  </linearGradient>
 </defs>
 <g id="Layer_x0020_1">
  <metadata id="CorelCorpID_0Corel-Layer"/>
  <g id="_2212957432304">
   <g>
    <path class="fil0" d="M11189.92 1768.94l0 1476.07 417.64 0 0 -1210.19c4.18,4.8 0.98,0.76 5.84,7.92l112.02 199.82c8.66,15.57 16.12,29.47 24.62,44.17 16,27.69 31.03,55.55 48.32,84.67l431.52 756.26c69.04,100.11 150.61,144.85 281.8,144.85 161.9,0 224.89,-112.26 224.89,-265.87l0 -1457.73 -417.65 0 0 1081.84c-10.34,-3.75 -6.65,6.2 -26.04,-33.58 -8.17,-16.75 -12.88,-23.15 -21.31,-38.31l-387.23 -699.65c-7.74,-13.84 -13.38,-23.84 -21.73,-37.89 -55.96,-94.25 -91.79,-176.35 -185.5,-241.02 -174.85,-120.69 -487.19,-58.48 -487.19,188.64z"/>
    <path class="fil0" d="M4723.37 2149.42l0 1095.59 440.58 0 0 -1168.94c0,-135.89 90.28,-220.03 234.06,-220.03 85.79,0 154.89,0.14 220.41,50.31 21.84,16.72 37.4,34.04 50.52,59.56 9.41,18.27 22.8,59.51 22.8,87.24l0 252.13 -422.23 0 0 330.05 422.23 0 0 609.68 440.59 0 0 -1127.68c0,-226.93 -133.91,-407.33 -293.92,-499.47 -32.86,-18.91 -74.05,-36.36 -110.61,-49.96 -99.51,-37.02 -202.47,-46.49 -320.6,-46.49 -396.83,0 -683.83,240.24 -683.83,628.01z"/>
    <path class="fil0" d="M7288.87 2786.6c0,66.35 -54.07,114.6 -119.32,114.6l-651.71 0 0 343.81 683.83 0c174.95,0 340.1,-63.48 440.63,-206.25 58.76,-83.45 87.16,-199.25 87.16,-311.75 0,-237.12 -395.79,-446.03 -577.41,-555.53 -46.84,-28.25 -202.79,-119.67 -202.79,-177.92 0,-111.74 98.3,-128.35 188.16,-128.35l518.61 0 0 -316.3 -670.06 0c-226.58,0 -442.3,150 -471.54,386.23 -20.46,165.29 36.23,237.14 116.21,339.99 41.38,53.21 161.88,142.62 213.94,175.96 94.83,60.73 205.82,120.71 291.96,175.95 45.24,29.01 152.33,94.61 152.33,159.56z"/>
    <path class="fil0" d="M9574.43 2360.29c0,169.87 13.16,269.21 90.26,423.26 24.96,49.89 49.5,91.67 83.07,132.47 117.46,142.76 215.06,198.46 381.99,264.82 191.8,76.24 412.85,64.17 624.17,64.17l0 -330.06c0,-22.97 -81.45,-13.75 -123.91,-13.75 -234.33,0 -408.74,6.4 -563.26,-198.36 -45.38,-60.14 -53.06,-119.54 -65.5,-145.44l752.67 0 0 -316.3 -738.91 0c-15.65,0 -11.53,-6.43 -10.31,-14.11 12.5,-79.14 88.38,-180.68 156.49,-234.12 218.84,-171.69 592.73,-62.26 592.73,-113.91l0 -330.05c-201.24,0 -431.92,-12.07 -620.93,62.83 -54.1,21.44 -102.4,38.15 -149.22,66.4 -86.35,52.1 -62.01,38.96 -129.4,90.79 -160.33,123.35 -279.94,381.88 -279.94,591.36z"/>
    <path class="fil0" d="M8936.49 3245.01l353.39 0 0 -330.06c0,-22.37 -47.4,-13.76 -68.84,-13.75 -195.52,0.15 -346.66,22.44 -501.23,-81.53 -131.57,-88.49 -242.27,-258.91 -242.27,-422.71 0,-241.54 236.74,-505.46 490.97,-504.35l289.64 0.5c17.11,0.13 31.73,3.54 31.73,-14.15l0 -330.05 -353.39 0c-136.42,0 -261.82,38.28 -358.68,77.23 -112.59,45.27 -178.95,92.1 -268.72,167.07 -153.65,128.33 -257.52,345.87 -267.55,553.32 -3.27,67.59 -6.89,11.87 -0.25,96.52 1.55,19.66 -0.24,32.6 2.75,52.27 30.02,197.16 112.36,371.11 262.58,503.26 82.53,72.6 163.64,125.22 267.91,167.9 97.35,39.84 226.35,78.53 361.96,78.53z"/>
    <path class="fil0" d="M13021.12 1878.96c0,10.56 3.19,13.75 13.76,13.75l408.47 0 0 1338.55c0,10.56 3.19,13.75 13.76,13.75l403.87 0 0 -1352.3 413.06 0c10.57,0 13.76,-3.19 13.76,-13.75l0 -330.05 -1266.68 0 0 330.05z"/>
   </g>
   <g>
    <path class="fil1" d="M1220.33 2280.23l6.21 4.94 6.24 4.91 7.11 3.23c2.94,10.24 1.59,5.49 12.26,15.08l258.23 199.65c19.57,-26.81 44.62,-51.77 68.49,-79.49 146.49,-170.17 134.85,-349.7 -40.45,-494.11 -25.39,-20.92 -145.1,-103.66 -183.55,-106.88 -12.96,12.64 3.66,11.54 -19.25,53.55l-67.44 240.33c-0.52,1.25 -1.25,2.63 -1.78,3.84 -14.46,32.91 -5.76,17.99 -11.84,41.95l-11.22 28.06c-21.14,52.38 -8.97,66.44 -23.01,84.94zm-527.8 -419.23l6.13 4.98 6.12 4.96 6.48 2.53c6.61,16.11 46.04,41.15 60.28,51.43l189.71 151.62c87.87,70.42 169.53,134.24 259.08,203.71l6.21 4.94 6.24 4.91 7.11 3.23 -7.11 -3.23 -6.24 -4.91 -6.21 -4.94c14.04,-18.5 1.87,-32.56 23.01,-84.94l11.22 -28.06c6.08,-23.96 -2.62,-9.04 11.84,-41.95 0.53,-1.21 1.26,-2.59 1.78,-3.84l67.44 -240.33c22.91,-42.01 6.29,-40.91 19.25,-53.55 -24.05,-26.83 -100.31,-50.82 -139.29,-66.01 -49.77,-19.41 -95.32,-34.64 -145.8,-52.17 -51.62,-17.93 -267.97,-89.43 -307.94,-86.19 -4.3,35.26 -55.17,207.21 -69.31,237.81zm0 0l6.13 4.98 6.12 4.96 6.48 2.53 -6.48 -2.53 -6.12 -4.96 -6.13 -4.98c14.14,-30.6 65.01,-202.55 69.31,-237.81 -1.22,-0.92 -2.93,-1.92 -3.86,-2.42l-545.79 -140.25 480.34 380.48z"/>
    <path class="fil2" d="M733.77 1512.5l1095.74 -114.18 561.96 -1331.39c247.32,338.2 400.78,616.16 484.33,840.14 300.26,804.94 -350.77,929.19 -1226.79,794.18 -288.22,-44.42 -606.43,-99.72 -915.24,-188.75z"/>
    <path class="fil3" d="M735.5 1514.25l1095.74 -114.18 561.96 -1331.39c169.36,423.43 267.43,682.44 289.43,918.8 34.91,374.97 -28.1,695.37 -988.58,641.22 -291.1,-16.42 -625.92,-64.76 -958.55,-114.45z"/>
    <path class="fil4" d="M1917.95 3648.57c92.95,-95.61 207.44,-172.33 290.06,-273.28 480.06,-586.59 882.74,-1229.48 898.96,-2067.78 2.46,-127.18 -27.03,-259.96 -42.18,-396.57 107.89,187.24 140.77,367.19 164.27,561.72l988.4 110.44 -981.03 910.58c92.74,453.13 185.49,906.26 278.23,1359.39 -490.01,-274.38 -632.22,-513.07 -863.04,-545.42 -120.14,-16.83 -345.76,150.07 -733.67,340.92z"/>
    <path class="fil5" d="M780.74 3088.19c153.07,-121.59 544.74,-275.02 717.84,-328.7 249.12,-79.03 902.08,-195.87 705.1,280.01 -263.04,403.93 -609.84,576.99 -976.69,811.68l168.02 -959.52 -614.27 196.53z"/>
    <path class="fil6" d="M2211.81 2041.85c-2.23,6.7 -2.53,11.54 3.02,21.39 9.44,-0.75 16.44,-6.37 16.72,-7.34 0.23,-0.81 1.08,-0.71 1.63,-1.06 1.55,-8.66 -0.25,-9.68 3.36,-16.48l8.94 -0.18c3.37,2.08 3.01,0.58 6.95,5.71l18.15 -15.15c0.11,-0.04 7.83,-12.76 21.84,34.21 -4.88,12.96 -16.98,27.15 -33.31,30.99 -31.65,7.47 -41.48,-40.6 -58.45,-2.38 -0.55,0.57 -1.28,1.31 -1.67,1.71 -0.37,0.38 -1.15,1.2 -1.58,1.67 -0.52,0.55 -2.47,2.53 -2.94,3.03 -1.9,2.07 -2.02,2.35 -3.33,4.03 1.78,5.57 -0.23,2.42 4.4,8.26 16.5,20.76 21.5,16.43 28.78,9.46 4.12,-3.93 0.71,-1.17 4.5,-3.76 0.37,-0.26 1.7,0.03 1.98,-0.85 0.29,-0.92 1.4,-0.49 2.1,-0.75 12.54,-0.96 9.04,-8.07 28.43,-5.54 10.77,1.41 12.8,5.96 19.14,12.36 16.84,16.99 15.03,21.01 2.73,40.98 -11.7,18.97 16.92,19.56 5.66,41.01l-26.65 33.06c-29.52,0.85 -24.55,-26.69 -50.27,-5.83 -14.02,11.36 -18,27.51 -40.64,28.32 -15.86,0.56 -56.02,1.27 -69.77,-2.13 -11.19,-2.76 -15.73,-7.9 -21.93,-13.77 -6.2,-5.85 -11.03,-9.71 -16.22,-16.11 -19.61,2.79 -15.22,3.89 -25.19,15.96 -7.18,8.68 -11.41,9.08 -17.06,20.72 4.18,10.04 26.7,38.59 39.44,36.61 20.34,-3.18 14.48,-28.19 50.15,-28.37 131.3,-0.7 63,18.29 120.61,38.08 6.76,-8.78 31.17,-34.22 43.68,-37.74 10.54,5.45 19.77,16.29 25.69,24.24 1.2,16.49 -7.31,43.38 -14.76,54.89 -36,1.19 -23.47,-0.85 -56.77,33.3 -29.87,30.62 -44.49,-10.94 -58.11,-11.38 -11.41,2.84 -24.59,15.44 -29.76,27.12 2.47,10.24 17.23,24.03 27.03,28.69 16.32,1.49 32.57,-48.98 70.27,-0.14 12.4,16.06 -7.18,26.18 -18.66,44.75 -36.87,59.58 -35.24,-5.11 -65.33,24.29 2.83,7.2 3.07,8.02 9.9,12.78l10.67 6.09c0.31,-0.56 1.32,0.69 1.91,1.16 -3.98,18.24 -72.77,65.07 -88.99,66.08l-19.25 8.1 7.33 7.39c0.32,0.27 1.11,0.75 1.61,1.21 19.88,6.12 40.16,17.39 60.91,26.16 20,8.46 40.91,17.88 60.51,27.09l116.84 53.02c8.38,2.74 4.41,2.12 13.66,2.55l8.24 -9.39c0.77,-14.14 19.87,-37.51 27.81,-44.94 5.82,-5.43 3.53,-4 10.86,-8.47 4.34,-2.67 7.32,-3.83 10.71,-5.95 9.84,-6.16 9.23,-7.67 23.67,-11.81 44.41,-12.72 83.63,14.11 126.47,-12.63 12.83,-8.01 30.2,-26.19 34.45,-39.12 6.21,-18.86 -1.46,-48.53 6.49,-65.1 4.18,-8.72 9.98,-10.97 14.17,-21.07 4.87,-11.74 1.35,-19.67 2.71,-33.11 1.29,-12.53 5.94,-15.04 6.3,-30.24 0.35,-15.05 -4.69,-20.01 -2.35,-31.25 7.72,-9.73 21.62,-11.76 30.75,-21.26 3.31,-3.45 6.77,-9.33 10.59,-14.1 23.24,-29.02 -23.7,-59.32 -26.51,-76.9 -7.26,-4.29 -5.05,-2.1 -9.39,-9.48 -6.37,-6.17 -19.25,-24.97 -24.03,-32.21 -12.65,-19.09 -15.2,-13.42 -14.63,-44.64 0.34,-18.72 13.74,-70.16 4.18,-104.22 -3.05,-10.86 -2.41,-15.21 -4.81,-25.73l-24.26 -56.57c-4.65,-8.39 -7.54,-9.88 -12.65,-17.56 -4.23,-6.36 -6.51,-10.96 -10.97,-16.57 -43.18,-54.38 -97.54,-94.5 -164.14,-115.59l-22.7 -7.06c-23.22,-8.47 -105.3,-11.21 -128.27,-2.95 -9.86,3.54 -21.96,18.75 -26.18,29.02 -0.04,7.8 83.67,81.47 83.47,123.07 -5.01,2.94 -13.06,4.49 -19.03,12.1 -4.84,6.18 -5.55,11.1 -7.76,19.64 -23.03,0.03 -7.92,2.43 -21.09,6.58zm-408.35 347.87l-5.02 4.31 -4.65 5.12c-11.08,19.91 26.46,48.94 42.79,51.65 2.64,-3.61 16.27,-16.94 20.28,-20.24 11.64,-9.59 16.55,-4.25 34.41,-6.91 16.06,-2.39 20.33,-0.14 28.51,8.95 39.18,43.49 42.63,46.7 67.32,21.54 48.55,-49.45 49.01,-39.11 5.35,-80.54 -38.16,-36.22 -28.4,-26.17 -73.34,15.24 -6.24,5.75 -11.43,9.77 -24.05,9.35 -6.43,-0.22 -21.73,-2.14 -31.38,-2.9 -31.1,-44.47 -39,-27.69 -60.22,-5.57zm312.81 -284.53c-0.23,-4.58 -1.48,-3.82 2.72,-3.29 -0.44,-4.08 -1.44,-3.24 2.51,-2.97 -0.5,-4.1 -1.37,-3.15 2.77,-2.69 -0.24,-4.53 -1.31,-3.79 2.97,-2.49l8.91 -2.63 1.59 -15.96 -1.96 -4.8c-5.93,-10.91 -41.86,-46.64 -53.96,-51.66 -18.46,-7.62 -28.47,24.43 -54.29,40.88 -9.16,5.84 -34.52,6.97 -45.06,1.2 -7.75,-4.26 -18.19,-19.41 -27.16,-25 -12.24,-7.63 -21.97,3.77 -30.38,11.79 -35.13,33.49 -14.72,35.92 -0.05,51.74 32.5,35.03 25.55,4.42 51.98,-5.89 47.84,-18.66 56.48,-0.27 94.99,44.28 22.82,-1.79 19.24,-10.13 35.13,-23.25 5.76,-4.76 4.89,-2.95 9.29,-9.26zm-89.23 124.94l9.47 -9.89c6.41,-18.71 -0.58,-17.5 -11.25,-29.95 -25.76,-30.03 -28.7,-30.9 -49.14,-9.74 -49.36,51.1 -61.81,0.13 -78.57,-2.26 -14.76,2.08 -30.96,18.26 -33.52,33.12 5.17,9.33 7.1,9.54 13.98,16.74 36.38,38.1 11.38,-20.18 73.81,-4.6 37.68,9.41 22.81,61.81 75.22,6.58zm57.73 285.06c4.58,0.48 3.63,-0.82 3.18,3.62 4.38,-0.83 3.51,-1.79 2.88,2.59 4.02,-0.44 3.18,-1.46 3.15,2.33 4.17,-0.64 3.34,-1.67 3.17,2.3l15.44 -1.11c-0.39,-3.92 -1.21,-2.91 2.85,-2.61 -0.16,-3.9 -1.06,-2.97 2.87,-2.6 -0.32,-4.14 -1.38,-3.38 2.55,-2.92 -0.59,-4.13 -1.41,-3.12 2.85,-2.63 -0.28,-3.94 -1.19,-3.02 2.76,-2.71 -0.35,-4.09 -1.27,-3.19 2.83,-2.63 -0.14,-4.02 -1.07,-3.1 2.98,-2.5l4.58 -3.62 3.52 -4.69 2.61 -5.6 0.8 -7.55c-4.07,-0.02 -2.83,0.75 -1.75,-3.72l-4.14 -4.06 -5.34 -5.61 -2.01 -3.46c-3.85,0.3 -2.94,1.23 -2.92,-2.54 -4.07,0.34 -3.27,1.35 -2.93,-2.55 -3.92,0.34 -2.94,1.18 -2.61,-2.86 -3.79,0.22 -2.87,1.13 -2.81,-2.66l-2.8 -2.67 -4.43 -3.78 -3.75 -1.72c-4.71,0.87 -3.66,1.97 -3.66,-2.61 -12.55,5.94 -26.35,27.5 -38.65,31.43 -40.18,12.86 -41.17,-41.35 -69.89,-6.41 -3.17,3.85 -8.91,12.99 -10.24,16.03 10.97,10.6 13.68,18.95 29.29,27.22 12.03,-4.35 24.29,-26.61 47.13,-17.14 7.88,3.26 10.83,8.37 22.49,17.44zm74.05 -359.78c0.46,4.21 1.51,3.42 -2.51,2.96 0.77,4.31 1.59,3.3 -2.81,2.65 0.32,3.98 1.22,3.05 -2.81,2.67 0.59,4.27 1.43,3.27 -2.91,2.55 0.13,4.81 1.33,3.65 -3.38,3.65 -11.43,7.71 -14.37,10.44 -18.3,23.99 31.33,33.29 38.78,51.83 60.56,30.45 21,-20.61 15.14,-8.32 19.02,-18.95 -0.2,-4.33 -1.26,-3.44 2.96,-2.89l2.18 -3.3 1.02 -14.87 -1.32 -4.16c-4.05,0.36 -3.14,1.27 -2.68,-2.79 -4.02,0.31 -3.13,1.25 -2.72,-2.74 -4.19,0.5 -3.32,1.46 -2.8,-2.68 -4.07,0.44 -3.09,1.3 -2.61,-2.86 -4.25,0.54 -3.33,1.43 -2.63,-2.84 -4.15,0.55 -3.24,1.47 -2.79,-2.68 -4.17,0.53 -3.21,1.39 -2.63,-2.84 -3.96,0.47 -3.06,1.4 -2.96,-2.52 -4.15,0.48 -3.28,1.43 -2.77,-2.69 -4.16,0.31 -3.25,1.24 -2.55,-2.92 -4.08,0.39 -3.29,1.44 -3.14,-2.34l-18.72 2.37c0.64,4.19 1.54,3.26 -2.7,2.78zm-49.08 -209.53c-4.89,-0.04 -3.94,1.28 -3.5,-3.33l-3.03 -2.46c-7.58,-0.35 -3.73,1.2 -4.5,-3.69 -4.3,0.71 -3.43,1.66 -2.88,-2.6l-12.46 1.19c0.24,3.79 1.05,2.77 -2.89,2.58 0.31,3.87 1.27,3 -2.46,3.02 0.18,3.84 1.05,2.88 -2.92,2.54l-2.83 2.64c0.17,3.87 1.11,2.99 -2.72,2.75l1.53 4.56 3.34 4.87c4.3,-0.54 3.51,-1.56 2.86,2.61 4.4,-0.79 3.5,-1.77 3.02,2.59 9.51,2.06 1.88,-0.66 3.42,4.63 3.05,2.21 1.25,0.55 5.34,3.05l7.84 -1.92c25.32,-28 38.79,6.01 55.02,12.71 9.68,-2.23 27.34,-17.7 31.65,-27.32 0.32,-6.43 -21.26,-28.38 -28.92,-28.34 -21.9,5.58 -13.25,20.25 -44.91,19.92zm47.34 355.49c0.47,4.12 1.48,3.31 -2.5,2.97 0.37,3.87 1.16,2.84 -2.89,2.58 0.08,3.78 0.95,2.81 -2.97,2.5 0.09,3.85 1.05,2.99 -2.76,2.7 0.3,3.94 1.31,3.1 -2.44,3.05l-1.36 12.67 3.5 4.72 4.38 1.08 1.14 4.33c3.78,0.07 2.72,-0.76 2.14,3.34 4.01,-0.35 3.03,-1.2 2.54,2.92 4.25,-0.45 3.48,-1.49 2.88,2.6 4.35,-0.52 3.42,-1.61 3.42,2.51 15.09,-2.75 13.7,-4.83 21.7,-13 7.34,-7.48 10.17,-5.01 12.54,-18.14l-4.74 -4.3c-4.29,0.82 -3.44,1.82 -3.08,-2.38 -3.88,0.2 -2.88,1.04 -2.51,-2.97 -4.05,0.45 -3.2,1.43 -2.97,-2.5 -4.14,0.48 -3.24,1.42 -2.78,-2.69 -4.06,0.36 -3.15,1.26 -2.65,-2.81 -4.03,0.33 -3.21,1.33 -2.97,-2.51l-15.06 0.42c0.3,4.01 1.29,3.18 -2.56,2.91zm-8.26 -292.63c0.82,4.39 1.65,3.52 -2.7,2.39 0.4,4.47 1.38,3.46 -3.14,2.84 1.16,4.51 2.27,3.77 -2.13,3.19 0.72,4.31 1.72,3.29 -2.45,3.53l-0.61 7.11c4.35,0.21 3.2,-0.82 2.52,3.82 4.53,-0.94 3.58,-1.7 2.33,2.81 4.61,-0.59 3.57,-1.52 2.77,3.16 4.69,-1.32 3.79,-2.14 2.55,2.59 4.84,-0.87 3.99,-1.94 2.95,2.79 4.55,-1.3 3.57,-2.35 3.65,2.15l7.22 0.9c-0.72,-4.24 -1.36,-3.09 3.09,-2.19 -1.01,-4.93 -1.86,-3.36 3.44,-4.07l0.47 0.74c0,-4.72 -1.22,-3.46 3.21,-4.15l1.14 -2.43 4.97 -1.34 -0.08 -14.1c-4.75,1 -3.78,1.87 -2.65,-2.88 -4.97,1.25 -4.05,2.16 -2.65,-2.78 -4.91,1.28 -3.92,2.12 -2.65,-2.83 -5.02,1.25 -4.3,2.32 -2.82,-2.59 -4.97,1.4 -3.99,2.61 -3.96,-2.22l-10.8 1.09c-0.18,4.14 0.79,3 -3.67,2.47zm-54.34 403.88l19.27 -17.94c-7.2,-23.85 -24.07,-29.69 -40.22,0.86l20.95 17.08zm60.16 -325.81c0,5.19 1.44,4.33 -3.35,3.64 0.86,4.69 1.62,3.65 -3.04,2.21 -13.05,4.59 -2.76,0.75 -8.64,5.24 4.68,-0.09 3.22,4.64 3.85,9.82l3.79 4.42c4.58,-0.38 3.42,-1.43 3.42,3.2l14.76 2.96c0.49,-0.33 1.21,-0.75 1.72,-1.09 0.5,-0.35 1.19,-0.74 1.67,-1.09 17.5,-12.99 4.12,-21.03 -8.35,-33.24l-5.83 3.93zm-87.51 110.94c6.93,-6.1 8.67,-6.77 13.37,-16.42 -6.06,-7.84 -8.13,-13.71 -18.84,-15.22 -14.54,16.29 -13.57,24.31 5.47,31.64zm-44.32 138.93l-2.7 2.77c0.42,4.11 1.41,3.28 -2.6,2.87l-2.53 2.95 -0.55 6.36 1.85 3.62c4.29,-0.62 3.33,-1.5 2.64,2.84 4.54,-0.59 3.74,-1.61 2.68,2.79 4.68,-1.12 3.6,-1.89 2.58,2.92l9.22 -0.25 4.26 -3.82c-0.53,-4.13 -1.43,-3.22 2.73,-2.74l2.39 -3.09 -0.12 -5.87c-4,0.05 -2.82,0.82 -1.94,-3.54 -4.95,0.75 -3.46,1.63 -3.44,-3.77l0.02 0.09c-4.32,0 -3.11,0.99 -3,-3.58 -4.01,0.37 -3.14,1.33 -2.87,-2.59l-6 -0.81c0.54,4.17 1.5,3.3 -2.62,2.85zm175.35 -330.92l4.33 1.91 6.27 0.75c-0.57,-4.11 -1.4,-3.12 2.79,-2.68 -0.29,-4.04 -1.22,-3.15 2.77,-2.71 -0.63,-4.08 -1.51,-3.14 2.6,-2.88 -0.38,-3.72 -1.19,-2.7 2.65,-2.81l-0.4 -3.61 -3.79 -5.97 -11.31 -4.26 -14.5 11.08 8.59 11.18zm-170.61 -51.46l14.37 11.87c13.64,-9.94 16.85,-16.78 -0.41,-26.78 -8.43,8.73 -8.03,2.02 -13.96,14.91zm121.27 54.44c-3.9,-0.54 -3.1,-1.45 -2.7,2.39 -5.24,-1.11 -4.4,-2.26 -3.14,2.84 -4.05,-0.7 -2.81,-1.26 -2.13,3.19 -4.85,-0.57 -3.65,-1.43 -2.45,3.53l-0.61 7.11c-1.85,5.68 -3.2,4.8 2.52,3.82 -0.67,4.15 -1.67,3.43 2.33,2.81 -1.24,5.32 -2.43,4.52 2.77,3.16 -0.8,4.31 -1.7,3.49 2.55,2.59 -1.26,5.13 -2.17,4.14 2.95,2.79 -1.18,4.75 -1.59,3.18 3.65,2.15 0.55,0.41 1.44,0.46 1.72,1.17 0.27,0.65 1.44,0.62 1.79,0.62l3.71 -0.89c4.82,1.6 4.1,2.69 3.09,-2.19 5.17,1.08 3.44,1.79 3.44,-4.07 -5.3,0.71 -4.45,-0.86 -3.44,4.07 -4.45,-0.9 -3.81,-2.05 -3.09,2.19l-7.22 -0.9c-0.08,-4.5 0.9,-3.45 -3.65,-2.15 1.04,-4.73 1.89,-3.66 -2.95,-2.79 1.24,-4.73 2.14,-3.91 -2.55,-2.59 0.8,-4.68 1.84,-3.75 -2.77,-3.16 1.25,-4.51 2.2,-3.75 -2.33,-2.81 0.68,-4.64 1.83,-3.61 -2.52,-3.82l0.61 -7.11c4.17,-0.24 3.17,0.78 2.45,-3.53 4.4,0.58 3.29,1.32 2.13,-3.19 4.52,0.62 3.54,1.63 3.14,-2.84 4.35,1.13 3.52,2 2.7,-2.39 4.46,0.53 3.49,1.67 3.67,-2.47l10.8 -1.09c-0.03,4.83 -1.01,3.62 3.96,2.22 -1.48,4.91 -2.2,3.84 2.82,2.59 -1.27,4.95 -2.26,4.11 2.65,2.83 -1.4,4.94 -2.32,4.03 2.65,2.78 -1.13,4.75 -2.1,3.88 2.65,2.88l0.08 14.1 -4.97 1.34 -1.14 2.43c-4.43,0.69 -3.21,-0.57 -3.21,4.15 7.03,1.84 5.5,2.83 3.21,-4.15l1.14 -2.43c6.83,1.82 7.25,4.5 4.97,-1.34 1.62,-1.97 3.53,7.01 2.55,-7.09 -1.05,-15.11 0.4,-2.66 -2.63,-7.01 1.65,-5.08 2.54,-4.13 -2.65,-2.88 1.13,-4.87 2.15,-4.07 -2.65,-2.78 1.4,-5.01 2.36,-4.14 -2.65,-2.83 1.32,-5.01 2.18,-4.05 -2.82,-2.59 1.65,-5.95 2.09,-4.18 -3.96,-2.22 -8.09,-2.51 -4.31,-2.9 -10.8,1.09 -5.31,-1.26 -4.55,-2.63 -3.67,2.47zm10 146.67c-4.21,-0.49 -3.23,-1.34 -2.51,2.96 -4.04,-0.43 -3.14,-1.36 -2.81,2.65 -4.28,-0.66 -3.38,-1.59 -2.81,2.67 -3.95,-0.38 -3.06,-1.33 -2.91,2.55 -4.78,-0.8 -3.28,-1.6 -3.38,3.65 4.71,0 3.51,1.16 3.38,-3.65 4.34,0.72 3.5,1.72 2.91,-2.55 4.03,0.38 3.13,1.31 2.81,-2.67 4.4,0.65 3.58,1.66 2.81,-2.65 4.02,0.46 2.97,1.25 2.51,-2.96 4.24,0.48 3.34,1.41 2.7,-2.78l18.72 -2.37c-0.15,3.78 -0.94,2.73 3.14,2.34 -0.7,4.16 -1.61,3.23 2.55,2.92 -0.51,4.12 -1.38,3.17 2.77,2.69 -0.1,3.92 -1,2.99 2.96,2.52 -0.58,4.23 -1.54,3.37 2.63,2.84 -0.45,4.15 -1.36,3.23 2.79,2.68 -0.7,4.27 -1.62,3.38 2.63,2.84 -0.48,4.16 -1.46,3.3 2.61,2.86 -0.52,4.14 -1.39,3.18 2.8,2.68 -0.41,3.99 -1.3,3.05 2.72,2.74 -0.46,4.06 -1.37,3.15 2.68,2.79l1.32 4.16 -1.02 14.87 -2.18 3.3c-4.22,-0.55 -3.16,-1.44 -2.96,2.89 4.01,0 3.08,1.02 2.96,-2.89 4.65,0.58 3.54,1.37 2.18,-3.3 5.15,-4.86 3.84,-8.76 1.02,-14.87 1.64,-5.12 3.31,-4.59 -1.32,-4.16 0.57,-4.05 1.43,-3.09 -2.68,-2.79 0.45,-4.15 1.4,-3.26 -2.72,-2.74 0.4,-4.06 1.29,-3.12 -2.8,-2.68 0.51,-4.23 1.51,-3.41 -2.61,-2.86 0.49,-4.24 1.49,-3.41 -2.63,-2.84 0.73,-4.2 1.53,-3.19 -2.79,-2.68 0.43,-4.17 1.43,-3.34 -2.63,-2.84 0.64,-4.08 1.36,-2.97 -2.96,-2.52 0.11,-3.86 1.06,-3 -2.77,-2.69 0.47,-4.16 1.48,-3.34 -2.55,-2.92 0.73,-4.82 1.59,-3.82 -3.14,-2.34 -5.33,-2.76 -16.04,-7.19 -18.72,2.37 -4.08,-0.38 -3.17,-1.3 -2.7,2.78zm-50.52 293.82l3.75 1.72 4.43 3.78 2.8 2.67c-0.06,3.79 -0.98,2.88 2.81,2.66 -0.33,4.04 -1.31,3.2 2.61,2.86 -0.34,3.9 -1.14,2.89 2.93,2.55 -0.02,3.77 -0.93,2.84 2.92,2.54l2.01 3.46 5.34 5.61 4.14 4.06c-1.08,4.47 -2.32,3.7 1.75,3.72l-0.8 7.55 -2.61 5.6 -3.52 4.69 -4.58 3.62c-4.05,-0.6 -3.12,-1.52 -2.98,2.5 -4.1,-0.56 -3.18,-1.46 -2.83,2.63 -3.95,-0.31 -3.04,-1.23 -2.76,2.71 -4.26,-0.49 -3.44,-1.5 -2.85,2.63 -3.93,-0.46 -2.87,-1.22 -2.55,2.92 -3.93,-0.37 -3.03,-1.3 -2.87,2.6 -4.06,-0.3 -3.24,-1.31 -2.85,2.61l-15.44 1.11c0.17,-3.97 1,-2.94 -3.17,-2.3 0.03,-3.79 0.87,-2.77 -3.15,-2.33 0.63,-4.38 1.5,-3.42 -2.88,-2.59 0.45,-4.44 1.4,-3.14 -3.18,-3.62 0,5.26 -1.51,4.57 3.18,3.62 -0.46,4.03 -1.28,3.03 2.88,2.59 -0.67,4.13 -1.31,2.94 3.15,2.33 -0.02,4.03 -0.94,3.09 3.17,2.3 4.46,2.9 12.13,7.33 15.44,-1.11 3.92,0.32 3.01,1.26 2.85,-2.61 4.04,0.3 3.21,1.3 2.87,-2.6 4.08,0.37 3.11,1.23 2.55,-2.92 4.02,0.42 3.13,1.34 2.85,-2.63 4.05,0.5 3.11,1.39 2.76,-2.71 3.89,0.31 2.98,1.23 2.83,-2.63 4.2,0.54 3.38,1.56 2.98,-2.5 7.61,-1 3.67,0.59 4.58,-3.62 4.5,-0.83 3.06,3.22 3.52,-4.69l2.61 -5.6c6,-3.19 5.69,-3.27 0.8,-7.55 1.18,-4.91 2.71,-4.44 -1.75,-3.72l-4.14 -4.06c-1.49,-2.16 -1.91,-3.17 -5.34,-5.61 1.51,-4.63 2.61,-3.79 -2.01,-3.46 0.15,-3.86 1.03,-2.9 -2.92,-2.54 0.02,-3.79 0.92,-2.86 -2.93,-2.55 0.31,-3.96 1.27,-3.09 -2.61,-2.86 0.35,-3.81 1.15,-2.79 -2.81,-2.66l-2.8 -2.67 -4.43 -3.78 -3.75 -1.72c0.25,-4.14 1.02,-2.79 -3.66,-2.61 0,4.58 -1.05,3.48 3.66,2.61zm48.78 -147.86c-3.87,-0.28 -2.84,-1.09 -2.5,2.97 -3.87,-0.32 -2.97,-1.24 -2.89,2.58 -3.91,-0.26 -3.07,-1.25 -2.97,2.5 -3.99,-0.33 -3.1,-1.25 -2.76,2.7 -4.06,-0.3 -3.07,-1.14 -2.44,3.05 -5.08,5.12 -6.57,5.15 -1.36,12.67 0.21,10.87 -0.14,3.06 3.5,4.72l4.38 1.08 1.14 4.33c-0.91,4.44 -2.07,3.7 2.14,3.34 -0.62,4.23 -1.61,3.39 2.54,2.92 -0.51,4.11 -1.34,3.11 2.88,2.6 -0.63,4.47 -1.37,3.21 3.42,2.51 0,-4.12 0.93,-3.03 -3.42,-2.51 0.6,-4.09 1.37,-3.05 -2.88,-2.6 0.49,-4.12 1.47,-3.27 -2.54,-2.92 0.58,-4.1 1.64,-3.27 -2.14,-3.34l-1.14 -4.33 -4.38 -1.08 -3.5 -4.72 1.36 -12.67c3.75,0.05 2.74,0.89 2.44,-3.05 3.81,0.29 2.85,1.15 2.76,-2.7 3.92,0.31 3.05,1.28 2.97,-2.5 4.05,0.26 3.26,1.29 2.89,-2.58 3.98,0.34 2.97,1.15 2.5,-2.97 3.85,0.27 2.86,1.1 2.56,-2.91l15.06 -0.42c-0.24,3.84 -1.06,2.84 2.97,2.51 -0.5,4.07 -1.41,3.17 2.65,2.81 -0.46,4.11 -1.36,3.17 2.78,2.69 -0.23,3.93 -1.08,2.95 2.97,2.5 -0.37,4.01 -1.37,3.17 2.51,2.97 -0.36,4.2 -1.21,3.2 3.08,2.38l4.74 4.3 -4.74 -4.3 -3.08 -2.38c0.32,-4.19 1.41,-3.46 -2.51,-2.97 0.4,-3.99 1.2,-2.95 -2.97,-2.5 0.2,-3.93 1.14,-3.03 -2.78,-2.69 0.45,-4.06 1.38,-3.17 -2.65,-2.81 0.52,-4.19 1.33,-3.18 -2.97,-2.51 -1.28,-0.96 3.73,-4.12 -8.87,-3.47 -11.17,0.58 -3.84,0.61 -6.19,3.89 -3.97,-0.24 -3.05,-1.13 -2.56,2.91zm-19.34 -226.21l-1.59 15.96 -8.91 2.63c-4.28,-1.3 -3.21,-2.04 -2.97,2.49 -4.14,-0.46 -3.27,-1.41 -2.77,2.69 -3.95,-0.27 -2.95,-1.11 -2.51,2.97 -4.2,-0.53 -2.95,-1.29 -2.72,3.29 4.18,0 3.15,0.99 2.72,-3.29 4.04,0.51 2.97,1.28 2.51,-2.97 3.91,0.26 3.02,1.19 2.77,-2.69 3.93,0.46 3.01,1.38 2.97,-2.49 7.82,1.13 7.95,1.09 12.37,4.15 0.35,10.51 -0.95,4.09 3.85,9.82l3.79 4.42c-0.22,4.13 -1.08,2.8 3.42,3.2 0,-4.63 1.16,-3.58 -3.42,-3.2l-3.79 -4.42c-0.63,-5.18 0.83,-9.91 -3.85,-9.82 5.88,-4.49 -4.41,-0.65 8.64,-5.24 4.66,1.44 3.9,2.48 3.04,-2.21 4.79,0.69 3.35,1.55 3.35,-3.64 -5.05,0.37 -4.2,-1.07 -3.35,3.64 -4.04,-0.6 -3.27,-1.62 -3.04,2.21 -9.08,-2.99 -4.54,-0.44 -8.74,-4.33 0.29,-9.17 1.46,-7.05 -1.77,-13.17 1.19,-5.65 2.87,-4.8 -1.96,-4.8l1.96 4.8zm-57.26 -137.59l-2.46 3.02 -2.92 2.54c-3.91,-0.33 -3,-1.25 -2.83,2.64 -4.2,-0.09 -3.51,-1.19 -2.72,2.75 -7.89,-0.59 -0.36,3.89 1.53,4.56 -0.05,7.87 -1.69,4.3 3.34,4.87 -0.66,4.37 -1.55,3.42 2.86,2.61 -0.65,4.42 -1.5,3.4 3.02,2.59l3.42 4.63c0.85,2.51 -2.82,4.96 5.51,5.35 11.91,0.55 5.45,-1.91 7.67,-4.22l-7.84 1.92c-4.09,-2.5 -2.29,-0.84 -5.34,-3.05 -1.54,-5.29 6.09,-2.57 -3.42,-4.63 0.48,-4.36 1.38,-3.38 -3.02,-2.59 0.65,-4.17 1.44,-3.15 -2.86,-2.61l-3.34 -4.87 -1.53 -4.56c3.83,0.24 2.89,1.12 2.72,-2.75l2.83 -2.64c3.97,0.34 3.1,1.3 2.92,-2.54 3.73,-0.02 2.77,0.85 2.46,-3.02 3.94,0.19 3.13,1.21 2.89,-2.58l12.46 -1.19c-0.55,4.26 -1.42,3.31 2.88,2.6 0.77,4.89 -3.08,3.34 4.5,3.69l3.03 2.46c-0.44,4.61 -1.39,3.29 3.5,3.33 0,-4.66 1.16,-3.53 -3.5,-3.33 0.42,-4.53 1.39,-3.66 -3.03,-2.46l-4.5 -3.69c0.61,-4.45 1.54,-3.54 -2.88,-2.6l-6.73 -4.15 -5.73 5.34c-4.11,-0.52 -3.23,-1.47 -2.89,2.58zm131.33 104.28c-1.22,1.28 -11.92,0.28 0.63,24.03 13.82,0.56 19.76,-7.22 26.48,-15.84l-2.38 -11.68c-3.61,6.8 -1.81,7.82 -3.36,16.48 -0.55,0.35 -1.4,0.25 -1.63,1.06 -0.28,0.97 -7.28,6.59 -16.72,7.34 -5.55,-9.85 -5.25,-14.69 -3.02,-21.39zm21.09 72.51c-0.7,0.26 -1.81,-0.17 -2.1,0.75 -0.28,0.88 -1.61,0.59 -1.98,0.85 -3.79,2.59 -0.38,-0.17 -4.5,3.76 -7.28,6.97 -12.28,11.3 -28.78,-9.46 -4.63,-5.84 -2.62,-2.69 -4.4,-8.26 1.31,-1.68 1.43,-1.96 3.33,-4.03 0.47,-0.5 2.42,-2.48 2.94,-3.03 0.43,-0.47 1.21,-1.29 1.58,-1.67 0.39,-0.4 1.12,-1.14 1.67,-1.71 -8.45,3.84 -4.2,-0.07 -12.39,10.44 4.06,10.85 15.77,23.58 29.3,27.05 7.65,-5.58 10.37,-9.07 15.33,-14.69zm-210.09 222.32c-4.07,-0.43 -3.14,-1.33 -2.7,2.77l-2.6 2.87c-4.32,-0.4 -3.42,-1.33 -2.53,2.95l-0.55 6.36c-1.16,4.86 -2.62,4.35 1.85,3.62 -0.79,4.34 -1.71,3.44 2.64,2.84 -0.69,4.64 -1.77,3.92 2.68,2.79 -1.02,4.74 -2.06,3.94 2.58,2.92 0.65,0.5 1.66,0.95 2.23,1.05 0.53,0.09 1.75,0.34 2.28,0.4 5.51,0.59 5.05,3.1 4.71,-1.7 8.52,-1.23 2.15,0.17 4.26,-3.82 3.89,0.35 2.93,1.21 2.73,-2.74 4.45,0.48 3.47,1.37 2.39,-3.09l-0.12 -5.87c1.22,-4.89 2.64,-4.36 -1.94,-3.54 0.99,-5.17 1.97,-3.77 -3.44,-3.77 -0.02,5.4 -1.51,4.52 3.44,3.77 -0.88,4.36 -2.06,3.59 1.94,3.54l0.12 5.87 -2.39 3.09c-4.16,-0.48 -3.26,-1.39 -2.73,2.74l-4.26 3.82 -9.22 0.25c1.02,-4.81 2.1,-4.04 -2.58,-2.92 1.06,-4.4 1.86,-3.38 -2.68,-2.79 0.69,-4.34 1.65,-3.46 -2.64,-2.84l-1.85 -3.62 0.55 -6.36 2.53 -2.95c4.01,0.41 3.02,1.24 2.6,-2.87l2.7 -2.77c4.12,0.45 3.16,1.32 2.62,-2.85l6 0.81c-0.27,3.92 -1.14,2.96 2.87,2.59 -0.11,4.57 -1.32,3.58 3,3.58 -0.01,-4.8 1.35,-3.99 -3,-3.58l-2.87 -2.59c-0.7,-1.2 -7.49,-11.48 -6,-0.81l-2.62 2.85zm222.67 -298.5c3.49,4.86 2.26,3.81 6.24,7.56 12.42,-8.18 9.32,-13.18 27.19,-16.01 1.95,7.56 0.89,9.38 4.59,17.53 0.37,0.83 3.06,6.57 3.64,7.8l5.28 7.89c-14.01,-46.97 -21.73,-34.25 -21.84,-34.21l-18.15 15.15c-3.94,-5.13 -3.58,-3.63 -6.95,-5.71zm70.57 668.63c0.66,0.61 1.45,1.42 1.98,1.85l8.94 5.55c11.25,-4.93 9.15,-5.32 10.98,-14.24l-8.24 9.39c-9.25,-0.43 -5.28,0.19 -13.66,-2.55zm-96.88 -713.08l0.4 3.61c-3.84,0.11 -3.03,-0.91 -2.65,2.81 -4.11,-0.26 -3.23,-1.2 -2.6,2.88 -3.99,-0.44 -3.06,-1.33 -2.77,2.71 -4.19,-0.44 -3.36,-1.43 -2.79,2.68l-6.27 -0.75 -4.33 -1.91c0,4.33 -0.77,2.82 4.33,1.91 -0.85,5.36 -1.26,2.48 2.34,2.46 5.26,-0.02 0.95,1.23 3.93,-1.71 4.2,1.14 3.08,1.8 2.79,-2.68 4.25,0.43 3.42,1.44 2.77,-2.71 3.98,0.47 2.95,1.27 2.6,-2.88 3.86,0.27 2.9,1.13 2.65,-2.81 7.56,-0.26 1.08,-2.99 -0.4,-3.61 0.24,-8.72 1.67,-4.08 -3.79,-5.97l3.79 5.97zm-141.38 606.81c-0.5,-0.46 -1.29,-0.94 -1.61,-1.21l-7.33 -7.39 19.25 -8.1c-9.65,2.43 -15.45,0.97 -22.4,11.53l12.09 5.17zm536.28 -316.52c-2.29,-3.22 -1.13,-2.34 -4.05,-5.43 -3.26,-3.44 -1.67,-1.44 -5.34,-4.05 4.34,7.38 2.13,5.19 9.39,9.48zm-815.63 110.01c-8.35,2.04 -2.75,-0.42 -4.65,5.12l4.65 -5.12 5.02 -4.31c-5.67,1.81 -3.33,-2.9 -5.02,4.31zm228.6 -163.9c4.33,-2.76 2.07,-0.5 5.62,-3.97 3.95,-3.86 0.75,-0.64 3.85,-5.92l-9.47 9.89z"/>
   </g>
  </g>
 </g>
</svg>
